<svg version="1.0" xmlns="http://www.w3.org/2000/svg" width="300.000000pt" height="300.000000pt" viewBox="0 0 300.000000 300.000000" preserveAspectRatio="xMidYMid meet"><g transform="translate(0.000000,300.000000) scale(0.100000,-0.100000)" fill="#000" stroke="none"><path d="M695 2520 c-4 -7 -9 -23 -10 -34 0 -12 -7 -30 -14 -41 -9 -15 -11 -16 -7 -2 6 19 -4 23 -21 6 -8 -8 -13 -7 -18 2 -6 8 -4 10 5 4 9 -6 11 -4 5 5 -5 9 -4 11 4 6 6 -4 11 -4 10 1 -3 19 2 27 10 14 6 -9 11 -10 15 -2 4 6 2 11 -5 11 -8 0 -8 5 2 18 12 15 11 15 -8 -1 -14 -12 -23 -15 -28 -8 -3 6 -1 11 6 11 7 0 10 3 6 6 -3 3 -11 3 -17 -1 -8 -5 -8 -11 1 -21 9 -11 8 -15 -4 -20 -17 -6 -19 -45 -2 -56 6 -5 3 -8 -7 -8 -14 0 -16 -4 -9 -23 5 -13 5 -30 1 -37 -5 -8 -4 -22 1 -32 5 -10 6 -18 2 -18 -5 0 -8 -46 -7 -102 1 -84 -2 -105 -15 -116 -14 -11 -14 -11 2 -6 20 7 21 1 7 -27 -7 -13 -7 -19 0 -19 5 0 10 -7 10 -16 0 -8 -4 -13 -8 -10 -5 3 -9 -1 -9 -9 0 -8 4 -12 9 -9 10 6 6 -26 -6 -45 -6 -10 -5 -12 2 -7 8 5 12 -1 12 -14 0 -14 -4 -19 -12 -14 -10 6 -10 4 0 -8 9 -11 10 -18 2 -23 -5 -3 -10 -11 -10 -17 0 -6 7 -5 17 3 13 11 15 11 9 1 -4 -7 -8 -29 -8 -48 0 -19 -4 -36 -9 -39 -4 -3 -6 -12 -3 -20 4 -8 10 -13 14 -10 5 3 5 -7 1 -22 -8 -30 -7 -110 2 -120 3 -3 2 -15 -2 -27 -4 -11 -6 -36 -5 -54 1 -17 -2 -30 -7 -27 -5 4 -6 -1 -3 -9 3 -9 10 -13 15 -10 5 3 6 -5 1 -18 -4 -13 -7 -36 -6 -53 1 -16 -3 -35 -8 -42 -5 -7 -5 -14 2 -18 15 -9 13 -48 -2 -39 -10 5 -10 4 -1 -6 6 -7 9 -19 6 -28 -4 -9 -2 -13 4 -9 15 9 4 -35 -11 -45 -8 -5 -7 -8 2 -8 6 0 12 -7 12 -16 0 -9 -5 -12 -12 -8 -10 6 -10 4 0 -7 14 -16 16 -43 2 -34 -5 3 -10 1 -10 -4 0 -6 4 -11 9 -11 5 0 9 -13 9 -30 -1 -18 -5 -27 -12 -24 -6 3 -2 -2 8 -10 20 -16 20 -16 0 -16 -16 0 -17 -2 -4 -10 13 -8 13 -10 1 -10 -11 0 -10 -4 5 -16 10 -8 13 -13 7 -9 -16 8 -17 -7 -2 -22 7 -7 5 -15 -6 -27 -15 -15 -15 -16 1 -16 17 0 17 -1 0 -13 -16 -12 -16 -14 -2 -26 18 -15 21 -31 5 -31 -5 0 -7 5 -4 10 3 6 1 10 -4 10 -13 0 -14 -13 -4 -24 11 -10 13 -140 2 -146 -4 -3 1 -11 11 -18 15 -9 20 -9 20 0 0 6 12 1 26 -13 l26 -24 -6 23 c-9 28 14 30 32 2 7 -11 17 -20 23 -20 8 0 8 4 -1 14 -10 13 -7 14 16 10 25 -5 26 -3 13 12 -8 10 -9 15 -3 11 7 -4 11 5 12 24 0 18 -3 27 -10 23 -5 -4 -2 6 8 22 11 15 13 25 7 21 -7 -5 -13 -4 -13 0 0 5 6 15 13 22 10 11 10 13 0 7 -7 -4 -13 -2 -13 3 0 6 6 11 13 11 6 0 4 5 -6 11 -10 6 -14 15 -10 22 13 20 14 97 1 97 -6 0 -8 3 -5 6 4 4 15 1 24 -7 16 -13 17 -12 4 4 -16 21 -22 128 -6 120 5 -2 1 3 -9 11 -17 14 -17 16 -4 16 9 0 20 5 24 12 5 8 2 9 -9 5 -14 -5 -16 -1 -11 29 3 22 0 41 -8 52 -8 9 -8 13 -1 9 8 -5 10 7 8 45 -2 38 2 59 14 73 15 18 15 19 -1 6 -16 -12 -17 -10 -13 23 3 24 1 36 -7 36 -6 0 -3 7 8 16 10 8 14 13 9 10 -12 -5 -13 120 -2 131 4 3 2 12 -4 20 -9 9 -8 13 0 13 6 0 11 5 11 11 0 5 -5 7 -10 4 -5 -3 -10 -2 -10 4 0 5 6 12 13 14 9 4 9 6 -1 6 -10 1 -10 6 -1 22 6 12 7 19 1 15 -6 -3 -9 5 -8 19 0 14 4 25 7 25 6 0 -4 91 -11 102 -3 4 4 14 15 23 11 9 14 13 6 9 -9 -5 -12 -3 -7 4 4 7 4 18 0 24 -5 7 -9 21 -9 30 -2 16 0 17 15 3 19 -18 30 -19 30 -4 0 5 -3 8 -7 6 -5 -3 -15 5 -24 17 -15 20 -15 22 7 39 13 10 24 13 24 7 0 -5 8 -10 17 -10 12 0 5 9 -19 25 -27 18 -37 33 -40 58 -3 28 0 33 17 34 11 1 14 -1 7 -4 -10 -4 -10 -8 0 -21 8 -10 9 -13 1 -9 -6 4 -10 2 -9 -5 3 -25 17 -37 37 -33 16 3 18 1 10 -9 -9 -10 -8 -15 3 -19 16 -7 15 -32 -2 -49 -8 -8 -12 -9 -12 -1 0 6 6 13 13 16 6 2 0 4 -15 4 -16 0 -28 -4 -28 -9 0 -5 4 -7 9 -4 5 3 12 -1 15 -9 4 -13 10 -14 26 -5 16 9 18 8 14 -5 -4 -10 -2 -15 7 -13 9 2 13 -4 11 -16 -2 -13 1 -16 10 -10 11 6 11 5 0 -8 -10 -13 -10 -19 2 -31 8 -8 13 -17 10 -20 -4 -3 -2 -12 2 -19 5 -7 9 -19 11 -27 1 -8 7 -17 14 -22 10 -6 10 -11 -2 -26 -13 -17 -13 -17 5 -3 18 14 19 13 13 -3 -5 -12 -3 -16 5 -11 7 5 9 2 5 -8 -3 -9 1 -24 9 -35 14 -17 14 -17 5 4 -8 16 -8 24 1 29 6 4 8 3 5 -3 -4 -6 2 -21 12 -34 10 -13 16 -30 14 -36 -3 -7 1 -13 7 -13 7 0 10 -6 7 -14 -3 -8 1 -22 8 -33 11 -13 14 -14 15 -4 0 8 3 11 6 8 4 -4 2 -13 -5 -21 -9 -11 -6 -18 15 -35 15 -12 22 -21 17 -21 -14 0 -12 -33 4 -48 10 -10 13 -10 13 -1 0 7 3 10 6 6 11 -11 -7 -28 -19 -19 -19 14 -49 23 -42 12 3 -6 13 -10 21 -10 9 0 12 -5 8 -12 -4 -7 -3 -8 4 -4 7 4 12 3 12 -3 0 -5 10 -8 21 -6 12 3 19 2 15 -2 -3 -3 0 -13 7 -21 8 -11 8 -14 0 -9 -7 4 -14 -1 -18 -13 -4 -11 -10 -18 -14 -16 -4 3 -7 -3 -7 -13 0 -10 6 -18 12 -18 7 0 10 6 8 12 -7 18 22 39 32 24 4 -8 3 -9 -4 -5 -7 4 -12 1 -12 -9 0 -10 5 -13 13 -9 6 4 3 -3 -8 -16 l-20 -23 24 13 c18 9 22 9 16 0 -4 -7 -2 -16 5 -20 7 -5 13 -22 12 -39 0 -17 4 -31 9 -31 6 0 8 4 5 8 -3 5 1 9 9 9 8 0 15 -4 15 -9 0 -4 -4 -8 -10 -8 -5 0 -10 -7 -10 -16 0 -8 4 -13 8 -10 4 3 7 -8 6 -25 -2 -31 10 -47 22 -28 4 7 3 9 -2 6 -6 -3 -11 4 -11 15 -2 19 -1 19 11 2 8 -10 11 -25 8 -33 -4 -10 -1 -12 8 -6 8 5 11 4 6 -3 -4 -6 -14 -8 -23 -5 -15 6 -16 5 -3 -9 8 -9 22 -14 31 -13 9 2 16 -3 16 -10 0 -8 -4 -12 -9 -9 -4 3 -8 0 -8 -7 0 -8 -5 -7 -17 2 -16 13 -17 12 -5 -3 8 -9 20 -14 28 -11 12 5 19 -7 15 -29 0 -5 4 -8 10 -8 8 0 7 -6 -2 -17 -8 -9 -9 -14 -4 -12 6 3 18 -2 28 -13 19 -20 9 -25 -12 -5 -10 10 -11 9 -6 -5 7 -17 18 -22 38 -19 5 1 6 -3 2 -8 -3 -6 -12 -8 -20 -4 -8 3 -15 0 -15 -6 0 -6 3 -10 8 -10 26 4 34 -3 30 -26 -6 -31 7 -41 29 -23 14 11 16 11 8 -2 -17 -27 -16 -50 3 -50 13 0 14 -2 3 -9 -10 -7 -8 -12 10 -26 16 -12 18 -15 6 -11 -12 4 -16 2 -11 -6 5 -8 2 -9 -11 -4 -15 5 -16 4 -5 -9 10 -13 15 -13 21 -3 4 7 11 10 14 6 3 -3 -1 -13 -10 -22 -9 -9 -13 -16 -8 -16 5 0 14 5 21 12 9 9 11 4 7 -20 -2 -19 0 -30 6 -26 5 3 7 9 4 14 -3 5 0 12 6 16 8 4 9 3 5 -4 -4 -7 -1 -12 6 -12 10 0 10 -2 0 -8 -25 -16 -22 -51 6 -70 31 -22 54 -19 45 6 -5 12 -1 11 16 -5 13 -12 30 -19 41 -16 15 4 18 1 15 -16 -2 -12 0 -19 6 -16 5 4 7 10 4 15 -7 11 22 33 34 26 5 -4 7 3 3 16 -3 12 -1 19 5 15 5 -4 8 6 5 24 -3 18 0 29 7 29 7 0 10 -4 7 -9 -4 -5 0 -8 6 -7 20 3 38 16 38 29 0 6 -6 3 -13 -7 -12 -16 -15 -16 -26 -3 -9 12 -9 17 0 23 8 5 9 3 4 -6 -5 -8 -4 -11 3 -6 13 8 12 48 -3 58 -6 5 -5 8 3 8 7 0 10 4 7 10 -3 6 1 7 9 4 19 -7 22 12 4 20 -7 3 1 4 17 1 20 -4 25 -3 16 3 -14 10 -6 56 9 47 5 -3 12 0 16 6 4 7 3 9 -4 5 -16 -10 -26 14 -12 27 10 9 11 9 6 0 -5 -9 -2 -11 8 -7 9 3 14 10 11 14 -3 5 3 13 12 19 25 14 7 14 -20 -1 -19 -10 -20 -9 -10 4 7 8 10 18 6 22 -4 4 1 4 11 0 17 -6 17 -5 6 17 -13 24 -13 24 7 6 20 -17 20 -17 15 9 -4 20 -2 25 8 19 9 -5 10 -2 6 13 -4 12 -2 23 5 28 7 4 9 3 5 -4 -3 -6 -2 -13 3 -17 6 -3 8 5 5 20 -3 20 -1 23 13 19 10 -3 7 2 -7 10 -14 8 -19 15 -12 16 7 0 11 4 7 9 -3 5 0 13 6 17 8 4 9 3 5 -4 -4 -7 -2 -12 3 -12 6 0 11 9 11 21 0 13 -4 18 -12 13 -7 -4 -8 -3 -4 5 4 6 12 9 17 6 18 -12 29 6 17 28 -11 21 -10 21 8 7 10 -8 16 -11 12 -6 -4 5 -2 18 4 30 16 27 16 38 4 55 -9 12 -7 12 14 1 l25 -13 -19 22 c-20 22 -20 22 0 15 16 -6 17 -5 7 7 -17 18 -16 26 3 33 14 5 15 4 4 -9 -10 -12 -10 -15 3 -15 11 0 14 7 11 26 -3 16 -1 23 6 19 5 -3 10 1 10 10 0 9 -3 14 -7 12 -5 -3 -8 5 -8 18 0 13 3 21 8 18 4 -2 7 0 7 5 0 5 10 13 23 16 22 6 22 7 3 21 -12 9 -15 15 -7 15 7 0 11 6 8 15 -4 8 -1 17 5 21 7 4 8 3 4 -4 -4 -7 -2 -12 5 -12 8 0 7 -5 -2 -17 -12 -16 -12 -17 2 -6 9 7 18 11 21 8 3 -3 11 3 19 12 13 16 12 17 -3 5 -16 -12 -35 -2 -21 12 15 14 11 35 -5 30 -14 -5 -14 -4 1 6 9 6 20 9 25 7 4 -3 8 6 8 19 2 22 0 23 -15 12 -14 -11 -14 -11 -4 3 7 9 9 20 5 24 -4 5 1 5 11 2 9 -4 17 -2 17 3 0 6 -6 10 -12 10 -7 0 -5 5 5 11 9 6 14 15 11 21 -4 7 -2 8 5 4 6 -4 9 -12 6 -17 -4 -5 -1 -9 4 -9 14 0 14 6 1 31 -8 14 -7 25 5 42 8 13 12 27 8 32 -5 4 -2 5 5 1 7 -4 10 -11 7 -16 -3 -4 2 -11 10 -14 14 -5 14 -2 1 23 -17 31 -5 54 22 44 11 -5 13 -3 6 8 -12 20 -14 40 -3 33 5 -3 6 -11 3 -17 -4 -7 -3 -9 1 -4 15 13 17 49 3 41 -10 -6 -10 -4 -2 7 6 8 10 22 9 31 -2 10 2 21 8 25 7 3 9 3 5 -2 -4 -4 -2 -15 5 -23 6 -9 7 -13 1 -9 -6 3 -11 0 -11 -8 0 -11 4 -12 13 -4 7 6 10 18 7 26 -4 11 -2 14 5 9 18 -11 15 0 -5 20 -17 17 -17 17 -1 11 22 -8 45 27 26 39 -6 4 -8 3 -4 -4 3 -6 2 -13 -3 -16 -5 -4 -8 2 -6 11 1 10 8 17 15 15 8 -2 10 3 7 13 -4 8 -2 15 3 15 5 0 10 8 12 18 3 13 7 11 21 -13 9 -16 16 -26 17 -22 0 13 -22 51 -34 59 -7 5 -6 8 3 8 11 0 11 3 1 16 -8 8 -9 14 -4 13 14 -3 44 12 44 23 0 5 -4 7 -9 4 -5 -4 -7 3 -4 14 9 36 20 21 20 -27 0 -27 -5 -54 -11 -62 -9 -12 -8 -13 8 -8 16 6 17 5 7 -7 -9 -11 -9 -16 0 -21 8 -6 8 -10 -2 -16 -11 -7 -11 -11 -1 -21 10 -10 6 -15 -20 -25 -27 -11 -28 -12 -6 -8 15 3 30 0 34 -7 4 -6 3 -9 -2 -6 -5 3 -17 -3 -26 -14 -10 -10 -14 -18 -9 -18 6 0 13 5 16 10 4 6 11 7 17 4 7 -4 5 -10 -4 -15 -14 -8 -16 -29 -5 -59 12 -33 15 -60 6 -60 -5 0 -9 -5 -9 -11 0 -5 6 -7 13 -3 9 5 9 4 0 -6 -7 -8 -9 -19 -4 -29 11 -20 11 -24 1 -61 -5 -19 -5 -28 1 -25 16 10 10 -7 -8 -20 -13 -9 -13 -14 -3 -20 9 -6 11 -4 5 6 -5 8 -4 11 0 6 12 -11 13 -57 0 -49 -5 3 -4 -2 4 -11 9 -12 10 -17 2 -17 -7 0 -9 -5 -5 -11 13 -21 10 -54 -6 -61 -13 -6 -12 -7 2 -7 14 -1 15 -6 8 -30 -7 -25 -6 -29 8 -23 14 5 15 3 5 -9 -6 -8 -10 -29 -9 -47 1 -17 -2 -32 -7 -32 -4 0 -5 -6 -1 -12 13 -21 11 -48 -3 -48 -12 0 -11 -3 1 -16 9 -8 16 -16 16 -17 0 -1 -4 -16 -9 -34 -8 -27 -7 -31 7 -25 14 5 15 3 5 -9 -7 -9 -11 -25 -8 -37 3 -16 -1 -22 -13 -22 -14 0 -14 -2 -3 -9 8 -5 10 -14 6 -21 -5 -8 -4 -11 2 -7 7 4 10 -3 9 -18 0 -14 -5 -25 -10 -25 -5 0 -1 -10 10 -21 l19 -22 -25 13 c-24 12 -24 12 -10 -6 9 -10 15 -32 14 -49 -1 -16 4 -33 10 -37 7 -5 7 -8 -3 -8 -7 0 -11 -6 -7 -15 3 -10 -1 -15 -12 -15 -16 -1 -16 -1 0 -11 13 -7 15 -15 8 -33 -5 -14 -5 -27 0 -32 6 -6 4 -20 -4 -35 -12 -23 -11 -25 8 -27 17 -1 18 1 6 8 -8 5 -10 10 -4 10 6 0 23 -10 38 -21 19 -15 27 -17 26 -8 -2 8 -2 21 -1 29 1 13 3 12 11 -1 7 -11 21 -16 45 -14 21 1 32 -2 28 -8 -3 -6 -1 -7 5 -3 8 4 8 15 2 31 -7 18 -6 25 3 25 8 0 7 4 -3 10 -9 6 -10 10 -3 10 8 0 9 9 3 30 -5 18 -5 30 1 30 5 0 9 5 9 11 0 5 -4 8 -8 5 -4 -2 -8 4 -8 15 0 10 4 19 8 19 5 0 4 9 -2 20 -8 14 -8 20 0 20 6 0 8 5 3 13 -12 19 -9 41 7 55 8 8 9 11 3 7 -9 -4 -13 1 -13 14 0 12 5 21 11 21 6 0 3 7 -5 16 -19 19 -21 28 -3 21 8 -3 13 3 14 17 0 11 -1 15 -4 9 -7 -20 -19 -15 -19 7 0 11 4 20 8 20 4 0 4 7 1 17 -5 12 -3 14 8 9 8 -4 5 0 -5 8 -20 16 -20 16 0 16 14 0 16 3 6 9 -16 10 -23 61 -9 61 8 0 8 3 1 10 -6 6 -8 31 -4 60 3 27 2 56 -2 65 -6 9 -5 15 1 15 10 0 9 19 -2 38 -5 6 -4 12 0 12 5 0 7 17 6 38 -7 95 -8 112 0 112 4 0 7 5 7 11 0 5 -4 8 -8 5 -15 -9 -7 69 8 82 8 8 9 11 3 7 -7 -3 -13 -1 -13 4 0 6 6 11 13 12 6 0 3 4 -8 9 -11 5 -14 9 -7 9 6 1 12 6 12 12 0 5 -3 8 -7 6 -5 -3 -8 12 -8 34 0 21 2 39 5 39 3 0 4 17 2 38 -5 69 -1 127 11 134 9 6 9 8 0 8 -8 0 -12 18 -11 50 0 31 4 48 10 44 6 -4 2 5 -7 20 -17 25 -16 26 1 26 15 0 16 2 5 9 -13 8 -13 12 -1 26 9 11 10 19 3 23 -12 8 -24 62 -13 62 4 0 4 18 0 40 -4 23 -3 40 2 40 5 0 6 5 3 10 -4 6 -12 7 -18 3 -9 -5 -9 -3 0 8 14 17 15 97 2 105 -5 3 -6 10 -3 16 4 6 2 8 -3 5 -6 -4 -14 0 -17 9 -5 12 -1 14 15 9 15 -5 19 -4 15 4 -7 11 -46 16 -46 5 0 -3 4 -13 8 -22 6 -12 3 -23 -11 -35 -19 -19 -19 -18 -12 4 6 18 4 21 -11 15 -18 -6 -18 -5 -1 8 24 18 21 29 -5 21 -21 -5 -21 -5 2 9 17 10 20 16 10 17 -26 3 -45 -2 -61 -17 -13 -12 -18 -11 -32 3 -11 11 -17 13 -17 5 0 -7 5 -12 11 -12 5 0 7 -5 4 -10 -4 -6 -11 -8 -16 -5 -5 4 -12 -1 -15 -9 -3 -9 -11 -13 -18 -9 -7 4 -6 1 1 -9 11 -12 9 -18 -7 -33 -13 -12 -17 -22 -11 -29 12 -15 9 -39 -8 -60 -7 -8 -10 -19 -7 -24 3 -5 -1 -9 -9 -9 -11 0 -12 5 -3 21 6 12 16 24 22 28 6 4 1 6 -11 6 -14 -2 -19 -7 -15 -17 3 -8 1 -12 -5 -8 -6 4 -9 -6 -7 -26 1 -18 -5 -42 -13 -55 -8 -13 -16 -36 -18 -50 -2 -22 -7 -26 -26 -24 -18 1 -20 0 -10 -7 17 -11 23 -39 10 -47 -5 -3 -7 -10 -3 -15 3 -5 2 -9 -3 -8 -18 3 -33 -2 -33 -11 0 -5 8 -7 18 -4 14 5 15 4 2 -5 -8 -6 -24 -8 -35 -5 -18 4 -18 4 -2 -6 13 -8 15 -16 7 -29 -5 -10 -6 -22 -2 -26 4 -5 3 -6 -3 -3 -5 2 -21 -7 -34 -20 -13 -15 -17 -23 -8 -19 8 3 18 0 21 -8 3 -9 0 -12 -8 -9 -8 3 -17 0 -21 -5 -3 -6 -12 -8 -18 -4 -8 4 -7 1 1 -9 7 -9 9 -18 5 -20 -4 -3 -3 -4 3 -2 12 2 12 -25 0 -44 -4 -6 -4 -17 0 -24 4 -6 3 -8 -4 -4 -6 3 -10 15 -9 26 1 10 5 16 11 13 5 -3 6 -1 2 6 -4 6 -12 9 -17 5 -6 -3 -8 -8 -5 -11 3 -3 -3 -18 -12 -32 -10 -14 -18 -37 -18 -51 1 -14 -4 -29 -11 -35 -25 -21 -42 -68 -32 -87 10 -18 8 -18 -11 -8 -19 10 -21 10 -11 -7 8 -16 9 -42 1 -63 -1 -3 -2 -9 -1 -13 1 -5 -3 -6 -8 -3 -5 4 -12 2 -16 -4 -4 -6 -11 -7 -17 -4 -7 4 -8 2 -4 -4 4 -7 9 -21 11 -32 3 -17 1 -19 -16 -9 -12 6 -23 8 -27 5 -3 -3 1 -6 8 -6 7 0 10 -3 7 -6 -3 -4 -2 -14 3 -23 10 -20 2 -35 -24 -44 -14 -6 -17 -15 -14 -38 3 -22 1 -29 -9 -25 -11 5 -18 -6 -10 -18 1 -2 -7 -13 -17 -25 -11 -12 -15 -21 -11 -21 4 0 0 -9 -9 -19 -17 -19 -17 -19 6 -15 21 5 21 4 -4 -11 -16 -8 -28 -18 -28 -21 0 -3 4 -3 9 0 5 3 12 -1 15 -10 4 -10 2 -13 -6 -8 -7 5 -9 2 -5 -9 3 -8 0 -21 -8 -27 -8 -6 -12 -17 -9 -23 2 -7 -6 -18 -18 -26 -22 -14 -22 -13 -8 5 14 19 14 19 -8 0 -12 -11 -20 -21 -17 -24 3 -3 -1 -12 -8 -20 -9 -13 -9 -14 1 -8 7 4 12 2 12 -4 0 -6 5 -8 12 -4 7 4 8 3 4 -4 -4 -6 -13 -9 -21 -5 -11 4 -13 1 -8 -13 6 -17 5 -18 -13 -4 -15 11 -16 11 -6 0 15 -17 16 -34 1 -24 -7 4 -7 -1 1 -16 9 -17 9 -21 0 -15 -9 5 -10 1 -5 -16 l8 -24 -19 20 c-11 12 -18 19 -17 16 2 -2 -3 -11 -10 -19 -9 -12 -9 -14 0 -9 7 5 17 -2 24 -15 12 -22 11 -22 -6 -8 -17 14 -18 13 -13 -7 5 -20 4 -21 -13 -12 -11 5 -16 15 -13 21 5 7 2 8 -7 2 -24 -15 -41 -14 -35 2 3 9 1 12 -4 9 -6 -3 -10 -1 -10 5 0 7 -7 10 -15 6 -8 -3 -15 -1 -15 5 0 6 8 9 18 7 11 -2 20 2 20 7 1 6 -7 10 -17 10 -11 0 -23 4 -28 9 -5 5 -3 6 5 2 6 -4 12 -2 12 4 0 6 6 8 13 4 6 -4 4 2 -6 13 -9 11 -14 23 -10 27 5 4 4 7 -2 6 -37 -8 -66 19 -47 44 12 14 11 47 0 40 -5 -3 -6 -9 -3 -14 3 -5 0 -12 -6 -16 -8 -4 -9 -3 -5 4 4 7 1 12 -6 12 -8 0 -9 3 -3 8 6 4 17 16 25 26 15 19 14 19 -10 3 -24 -16 -26 -15 -26 2 0 13 5 17 16 13 12 -5 12 -3 -2 11 -9 10 -15 24 -11 33 3 8 2 14 -3 13 -22 -4 -33 2 -28 16 5 11 1 14 -12 10 -12 -4 -11 -1 4 6 25 14 29 26 7 26 -8 0 -12 -4 -9 -9 3 -4 0 -8 -5 -8 -15 0 -14 13 2 29 10 11 9 13 -5 8 -11 -4 -17 -2 -15 6 1 7 -4 11 -11 9 -8 -1 -11 2 -7 8 5 8 11 8 20 0 10 -8 15 -8 21 1 4 7 3 9 -3 6 -6 -4 -14 0 -17 9 -5 14 -9 14 -23 3 -13 -11 -15 -11 -9 -1 4 7 3 19 -4 27 -8 10 -8 15 1 21 7 4 9 3 5 -4 -3 -6 -1 -14 6 -18 7 -4 10 -4 6 1 -4 4 -3 14 3 21 8 10 6 12 -10 9 -11 -2 -23 0 -26 6 -4 5 -1 9 4 9 17 0 13 26 -6 41 -16 13 -17 12 -4 -4 8 -9 11 -20 7 -24 -3 -3 -6 -1 -6 6 0 7 -4 10 -9 6 -6 -3 -8 6 -5 21 3 14 1 23 -4 20 -5 -3 -8 6 -6 19 2 26 -11 34 -19 13 -3 -7 -3 5 0 26 5 28 3 37 -6 32 -6 -4 -9 -12 -6 -17 3 -5 -1 -6 -9 -3 -14 5 -14 8 -1 21 18 17 19 29 5 38 -6 4 -8 10 -5 15 3 4 -2 13 -10 20 -7 6 -11 19 -8 28 4 15 3 15 -6 2 -8 -11 -11 -12 -11 -2 0 7 -4 11 -8 8 -4 -2 -9 5 -9 17 -2 17 0 19 7 7 7 -10 10 -11 10 -2 0 7 -11 17 -25 22 -21 8 -24 13 -16 27 5 10 11 21 13 25 6 11 -44 58 -56 51 -6 -3 -8 -3 -4 2 4 4 2 15 -5 23 -8 10 -8 13 -1 9 7 -4 14 0 18 8 3 8 0 17 -6 21 -7 4 -8 3 -4 -4 4 -7 2 -12 -3 -12 -6 0 -11 7 -11 15 0 8 -4 15 -10 15 -5 0 -10 5 -10 12 0 9 3 9 12 0 7 -7 17 -12 23 -12 5 0 2 5 -8 11 -9 6 -15 14 -12 20 4 5 1 9 -5 9 -6 0 -8 5 -5 10 3 6 1 10 -5 10 -7 0 -10 -7 -6 -15 3 -8 2 -15 -3 -15 -5 0 -11 9 -14 20 -3 11 -1 18 3 15 5 -3 11 -1 15 5 3 5 1 10 -5 10 -6 0 -9 4 -5 9 3 5 1 12 -5 16 -5 3 -10 1 -10 -6 0 -7 -3 -9 -6 -6 -10 10 17 38 30 30 6 -3 8 -2 3 2 -4 5 -18 10 -30 12 -18 2 -19 1 -7 -8 13 -9 13 -10 0 -6 -8 2 -14 12 -12 22 2 9 -1 14 -6 11 -16 -10 -7 25 9 35 10 8 7 8 -10 4 -18 -6 -22 -4 -15 6 12 20 14 40 3 33 -5 -3 -6 -10 -3 -16 4 -6 2 -8 -3 -5 -6 4 -10 22 -9 40 2 22 -2 34 -10 34 -9 0 -10 -4 -4 -12 5 -6 5 -16 -2 -25 -8 -12 -9 -12 -4 2 3 11 -3 23 -15 31 -17 13 -18 15 -4 21 11 4 14 2 9 -7 -5 -8 -2 -7 9 2 20 16 22 22 5 18 -7 -1 -12 4 -10 11 1 8 -2 11 -8 7 -6 -3 -8 -11 -5 -16 4 -5 4 -9 1 -9 -3 0 -10 9 -16 19 -7 14 -7 22 2 27 7 5 8 3 3 -7 -5 -8 -4 -10 0 -6 5 4 10 15 11 24 2 12 0 13 -9 4 -18 -18 -31 -13 -16 6 12 15 12 16 -3 10 -10 -3 -17 -3 -16 1 2 12 -23 66 -35 75 -7 5 -2 6 13 3 14 -3 20 -3 13 0 -7 3 -9 13 -6 22 3 11 2 13 -4 5 -8 -12 -37 -12 -48 -1 -3 3 2 11 12 19 9 8 14 9 10 2 -4 -6 -3 -14 3 -18 5 -3 10 0 10 8 0 21 -11 27 -31 17 -19 -11 -52 -3 -44 10 3 5 -1 12 -8 17 -8 4 -16 15 -19 23 -4 12 -6 12 -13 0z m1568 -37 c-7 -2 -11 -10 -9 -16 1 -7 1 -9 -1 -4 -3 4 -9 7 -14 7 -6 0 -7 -4 -4 -10 4 -6 -6 -10 -22 -9 -15 0 -22 3 -15 6 6 2 10 9 7 14 -4 5 1 6 9 3 9 -3 16 -2 16 3 0 5 10 9 23 10 12 0 17 -1 10 -4z m116 -46 c0 -9 -2 -8 -6 1 -2 6 -10 9 -15 6 -7 -4 -8 -2 -4 5 9 13 26 5 25 -12z m-185 -11 c-3 -8 -13 -17 -22 -21 -13 -5 -13 -2 3 15 21 24 26 25 19 6z m-1407 -298 c2 -17 0 -19 -7 -8 -5 8 -6 18 -4 22 8 12 10 10 11 -14z m33 -82 c0 -11 -19 -15 -25 -6 -3 5 1 10 9 10 9 0 16 -2 16 -4z m-30 -45 c0 -17 -18 -21 -24 -6 -3 9 0 15 9 15 8 0 15 -4 15 -9z m1220 -15 c0 -3 -4 -8 -10 -11 -5 -3 -10 -1 -10 4 0 6 5 11 10 11 6 0 10 -2 10 -4z m-30 -69 c0 -4 -6 -2 -14 5 -8 7 -12 17 -9 22 5 8 23 -12 23 -27z m-903 -69 c11 -19 12 -38 2 -38 -8 0 -11 8 -8 26 0 4 -5 11 -13 15 -9 6 -9 9 -1 9 6 0 15 -6 20 -12z m853 -17 c0 -6 -5 -13 -11 -16 -6 -4 -8 -14 -5 -22 3 -8 1 -11 -4 -8 -8 5 -8 28 -1 53 2 7 21 1 21 -7z m-1005 -9 c-3 -3 0 -11 7 -19 6 -7 8 -16 4 -20 -3 -3 -6 -1 -6 6 0 7 -5 9 -12 5 -7 -4 -10 -4 -6 1 4 4 3 13 -2 20 -7 8 -5 12 5 12 8 0 13 -3 10 -5z m33 -77 c-3 -3 -9 2 -12 12 -6 14 -5 15 5 6 7 -7 10 -15 7 -18z m925 -15 c-5 -19 -23 -29 -23 -12 0 7 20 32 26 32 1 0 0 -9 -3 -20z m-723 -55 c0 -15 -21 -12 -30 5 -11 20 -10 21 9 10 12 -6 21 -13 21 -15z m715 7 c-3 -3 -11 0 -18 7 -9 10 -8 11 6 5 10 -3 15 -9 12 -12z m-705 -40 c0 -5 -7 -9 -15 -9 -8 0 -12 4 -9 9 3 4 9 8 15 8 5 0 9 -4 9 -8z m585 -202 c3 -5 1 -10 -4 -10 -6 0 -11 5 -11 10 0 6 2 10 4 10 3 0 8 -4 11 -10z m-29 -92 c4 -7 3 -8 -4 -4 -7 4 -12 2 -12 -3 0 -6 -5 -11 -11 -11 -8 0 -8 5 1 15 15 18 17 18 26 3z m114 -112 c0 -2 -7 -9 -15 -16 -13 -11 -14 -10 -9 4 5 14 24 23 24 12z m-39 -63 c13 -16 12 -17 -3 -4 -17 13 -22 21 -14 21 2 0 10 -8 17 -17z m-182 -36 c8 -10 7 -14 -2 -14 -8 0 -14 6 -14 14 0 7 1 13 2 13 2 0 8 -6 14 -13z m-194 -77 c8 -13 -5 -13 -25 0 -13 8 -13 10 2 10 9 0 20 -4 23 -10z m302 -22 c-3 -8 -6 -5 -6 6 -1 11 2 17 5 13 3 -3 4 -12 1 -19z m-222 -90 c3 -3 7 -15 10 -27 3 -18 1 -20 -14 -11 -10 5 -22 6 -27 2 -5 -4 -2 2 6 12 14 17 13 18 -8 12 -14 -5 -22 -3 -22 4 0 6 5 8 10 5 6 -3 10 -2 10 4 0 9 25 9 35 -1z m-90 -268 c-3 -5 0 -10 7 -10 10 0 10 -2 -1 -9 -11 -7 -9 -10 10 -14 l24 -5 -25 1 c-14 1 -25 8 -26 17 0 17 5 30 12 30 3 0 2 -4 -1 -10z m115 -10 c0 -5 -2 -10 -4 -10 -3 0 -8 5 -11 10 -3 6 -1 10 4 10 6 0 11 -4 11 -10z m30 -30 c-6 -11 -13 -20 -16 -20 -2 0 0 9 6 20 6 11 13 20 16 20 2 0 0 -9 -6 -20z m-53 -5 c0 -8 -4 -12 -9 -9 -4 3 -8 9 -8 15 0 5 4 9 8 9 5 0 9 -7 9 -15z"/><path d="M726 2508 c4 -5 12 -7 20 -4 8 3 17 -1 20 -9 4 -8 11 -12 16 -9 6 4 3 11 -8 17 -24 14 -55 17 -48 5z"/><path d="M837 2379 c4 -13 8 -18 11 -10 2 7 -1 18 -6 23 -8 8 -9 4 -5 -13z"/><path d="M2140 2379 c0 -5 5 -7 10 -4 6 3 10 8 10 11 0 2 -4 4 -10 4 -5 0 -10 -5 -10 -11z"/><path d="M2070 2276 c0 -2 8 -10 18 -17 15 -13 16 -12 3 4 -13 16 -21 21 -21 13z"/><path d="M2045 2150 c-4 -6 -12 -7 -18 -3 -8 5 -8 2 0 -9 7 -8 11 -18 8 -22 -3 -3 0 -2 7 4 6 5 13 17 14 25 3 17 -2 19 -11 5z"/><path d="M971 2114 c0 -11 3 -14 6 -6 3 7 2 16 -1 19 -3 4 -6 -2 -5 -13z"/><path d="M2199 2068 c-6 -21 -5 -38 1 -38 5 0 8 9 7 20 -1 17 -5 26 -8 18z"/><path d="M1995 2049 c-4 -6 -5 -12 -2 -15 2 -3 7 2 10 11 7 17 1 20 -8 4z"/><path d="M2173 1963 c1 -16 6 -27 10 -25 4 1 12 2 17 2 6 0 10 5 10 11 0 8 -6 7 -16 -2 -15 -12 -16 -11 -10 8 4 12 2 24 -3 27 -6 4 -9 -5 -8 -21z"/><path d="M812 1893 c-8 -13 -12 -26 -9 -29 3 -3 8 4 12 15 3 12 10 19 14 16 5 -2 16 1 25 8 16 12 15 13 -5 13 -12 0 -28 -11 -37 -23z"/><path d="M1056 1901 c-3 -5 1 -11 9 -14 9 -4 12 -1 8 9 -6 16 -10 17 -17 5z"/><path d="M2150 1901 c0 -5 7 -11 14 -14 10 -4 13 -1 9 9 -6 15 -23 19 -23 5z"/><path d="M2395 1900 c-3 -5 -1 -10 4 -10 6 0 11 5 11 10 0 6 -2 10 -4 10 -3 0 -8 -4 -11 -10z"/><path d="M832 1872 c2 -8 8 -13 13 -12 6 1 13 -9 17 -22 l7 -23 -2 23 c-1 12 -6 22 -11 22 -5 -1 -13 4 -18 12 -8 11 -9 11 -6 0z"/><path d="M2153 1870 c2 -8 10 -14 17 -12 8 2 10 -3 7 -13 -4 -8 -2 -15 4 -15 6 0 9 7 7 16 -2 8 -7 14 -12 14 -5 -1 -13 4 -18 12 -8 10 -9 10 -5 -2z"/><path d="M790 1838 c0 -11 12 -10 30 2 12 7 10 9 -8 7 -12 0 -22 -5 -22 -9z"/><path d="M2120 1835 c-19 -22 -8 -25 13 -3 9 10 13 18 8 18 -5 0 -14 -7 -21 -15z"/><path d="M817 1823 c-3 -5 0 -17 4 -28 8 -18 9 -18 5 3 -3 17 -1 22 10 18 8 -3 14 -1 14 4 0 12 -27 13 -33 3z"/><path d="M2135 1821 c-3 -5 0 -13 6 -17 7 -4 9 -3 5 4 -3 5 0 13 6 15 9 4 10 6 1 6 -6 1 -14 -3 -18 -8z"/><path d="M1104 1798 l-19 -23 23 19 c21 18 27 26 19 26 -2 0 -12 -10 -23 -22z"/><path d="M2190 1811 c13 -10 13 -12 0 -22 -13 -9 -13 -10 0 -6 8 2 15 10 15 17 0 7 -7 15 -15 17 -13 4 -13 3 0 -6z"/><path d="M796 1787 c3 -10 9 -15 12 -12 3 3 0 11 -7 18 -10 9 -11 8 -5 -6z"/><path d="M2121 1793 c-1 -17 16 -25 25 -12 4 7 3 9 -4 5 -5 -3 -13 0 -15 6 -4 9 -6 10 -6 1z"/><path d="M855 1779 c-4 -6 -5 -12 -2 -15 2 -3 7 2 10 11 7 17 1 20 -8 4z"/><path d="M827 1751 c-4 -17 -3 -21 5 -13 5 5 8 16 6 23 -3 8 -7 3 -11 -10z"/><path d="M880 1750 c6 -11 13 -20 16 -20 2 0 0 9 -6 20 -6 11 -13 20 -16 20 -2 0 0 -9 6 -20z"/><path d="M2100 1762 c0 -5 7 -9 15 -9 8 0 12 4 9 9 -3 4 -9 8 -15 8 -5 0 -9 -4 -9 -8z"/><path d="M2180 1760 c8 -5 20 -10 25 -10 6 0 3 5 -5 10 -8 5 -19 10 -25 10 -5 0 -3 -5 5 -10z"/><path d="M576 1747 c3 -10 9 -15 12 -12 3 3 0 11 -7 18 -10 9 -11 8 -5 -6z"/><path d="M2070 1741 c0 -6 4 -12 8 -15 5 -3 9 1 9 9 0 8 -4 15 -9 15 -4 0 -8 -4 -8 -9z"/><path d="M2145 1721 c0 -15 5 -28 11 -28 6 0 9 11 6 24 -6 33 -17 36 -17 4z"/><path d="M795 1720 c3 -5 8 -10 11 -10 2 0 4 5 4 10 0 6 -5 10 -11 10 -5 0 -7 -4 -4 -10z"/><path d="M2170 1721 c0 -6 4 -13 10 -16 6 -3 7 1 4 9 -7 18 -14 21 -14 7z"/><path d="M820 1704 c0 -1 8 -8 17 -15 9 -8 14 -9 10 -2 -4 6 -1 13 5 16 7 3 3 4 -9 4 -13 -1 -23 -2 -23 -3z"/><path d="M919 1708 c-5 -13 -5 -60 0 -63 4 -2 7 12 7 31 0 29 -3 42 -7 32z"/><path d="M2024 1689 c-3 -6 0 -18 9 -26 11 -12 16 -12 22 -2 5 7 4 10 -3 5 -6 -3 -14 -1 -18 5 -3 6 0 15 7 20 9 6 10 9 2 9 -6 0 -15 -5 -19 -11z"/><path d="M2079 1683 c-5 -38 -5 -64 0 -67 3 -2 7 13 7 35 1 21 -1 39 -2 39 -2 0 -4 -3 -5 -7z"/><path d="M2176 1673 c-6 -14 -5 -15 5 -6 7 7 10 15 7 18 -3 3 -9 -2 -12 -12z"/><path d="M799 1653 c-13 -16 -12 -17 4 -4 9 7 17 15 17 17 0 8 -8 3 -21 -13z"/><path d="M876 1662 c-3 -5 1 -9 9 -9 8 0 12 4 9 9 -3 4 -7 8 -9 8 -2 0 -6 -4 -9 -8z"/><path d="M955 1653 c11 -12 18 -14 26 -6 8 8 7 13 -2 18 -8 5 -10 4 -5 -3 9 -15 -6 -16 -22 -2 -7 5 -5 2 3 -7z"/><path d="M2105 1660 c-3 -6 1 -7 9 -4 18 7 21 14 7 14 -6 0 -13 -4 -16 -10z"/><path d="M2206 1658 c3 -5 10 -6 15 -3 13 9 11 12 -6 12 -8 0 -12 -4 -9 -9z"/><path d="M819 1633 c-13 -17 -13 -17 6 -3 11 8 22 16 24 17 2 2 0 3 -6 3 -6 0 -17 -8 -24 -17z"/><path d="M1815 1640 c-3 -5 -1 -10 4 -10 6 0 11 5 11 10 0 6 -2 10 -4 10 -3 0 -8 -4 -11 -10z"/><path d="M875 1631 c-3 -5 -2 -12 3 -15 5 -3 9 1 9 9 0 17 -3 19 -12 6z"/><path d="M980 1621 c10 -7 11 -11 3 -11 -7 0 -13 -4 -13 -8 0 -5 6 -9 14 -9 18 0 14 30 -5 35 -11 3 -11 1 1 -7z"/><path d="M2180 1626 c0 -2 8 -10 18 -17 15 -13 16 -12 3 4 -13 16 -21 21 -21 13z"/><path d="M1810 1609 c0 -5 -4 -8 -9 -4 -5 3 -12 1 -15 -4 -8 -13 22 -7 36 7 9 9 9 12 0 12 -7 0 -12 -5 -12 -11z"/><path d="M2415 1611 c-3 -5 -2 -12 3 -15 5 -3 9 1 9 9 0 17 -3 19 -12 6z"/><path d="M830 1600 c0 -4 7 -7 15 -6 23 3 26 12 5 13 -11 1 -20 -2 -20 -7z"/><path d="M595 1589 c-4 -6 -5 -12 -2 -15 2 -3 7 2 10 11 7 17 1 20 -8 4z"/><path d="M913 1573 c0 -9 4 -10 14 -2 7 6 13 12 13 14 0 1 -6 2 -13 2 -8 0 -14 -6 -14 -14z"/><path d="M2031 1573 c7 -12 15 -20 18 -17 3 2 -3 12 -13 22 -17 16 -18 16 -5 -5z"/><path d="M1004 1572 c3 -5 0 -13 -6 -15 -9 -4 -10 -6 -1 -6 17 -1 25 16 12 25 -7 4 -9 3 -5 -4z"/><path d="M801 1556 c-8 -10 -9 -16 -1 -21 6 -4 9 -1 8 7 -2 7 5 12 14 12 10 -1 15 2 12 7 -8 13 -20 11 -33 -5z"/><path d="M936 1527 c3 -10 9 -15 12 -12 3 3 0 11 -7 18 -10 9 -11 8 -5 -6z"/><path d="M1023 1527 c0 -8 6 -14 14 -14 9 0 10 4 2 14 -6 7 -12 13 -14 13 -1 0 -2 -6 -2 -13z"/><path d="M2144 1522 c4 -3 14 -7 22 -8 9 -1 13 0 10 4 -4 3 -14 7 -22 8 -9 1 -13 0 -10 -4z"/><path d="M993 1507 c0 -8 6 -14 14 -14 9 0 10 4 2 14 -6 7 -12 13 -14 13 -1 0 -2 -6 -2 -13z"/><path d="M1746 1491 c-4 -5 -2 -12 3 -15 5 -4 12 -2 15 3 4 5 2 12 -3 15 -5 4 -12 2 -15 -3z"/><path d="M2149 1483 c-13 -16 -12 -17 4 -4 9 7 17 15 17 17 0 8 -8 3 -21 -13z"/><path d="M855 1471 c-3 -5 -2 -12 3 -15 5 -3 9 1 9 9 0 17 -3 19 -12 6z"/><path d="M576 1447 c3 -10 9 -15 12 -12 3 3 0 11 -7 18 -10 9 -11 8 -5 -6z"/><path d="M2415 1449 c-4 -6 -5 -12 -2 -15 2 -3 7 2 10 11 7 17 1 20 -8 4z"/><path d="M2054 1436 c1 -8 5 -18 8 -22 4 -3 5 1 4 10 -1 8 -5 18 -8 22 -4 3 -5 -1 -4 -10z"/><path d="M2099 1448 c-5 -18 -6 -38 -1 -34 7 8 12 36 6 36 -2 0 -4 -1 -5 -2z"/><path d="M1951 1427 c-8 -10 -7 -14 2 -14 8 0 14 6 14 14 0 7 -1 13 -2 13 -2 0 -8 -6 -14 -13z"/><path d="M856 1422 c-2 -4 -1 -14 4 -22 7 -11 9 -9 7 8 -1 24 -3 26 -11 14z"/><path d="M2010 1419 c0 -5 5 -7 10 -4 6 3 10 8 10 11 0 2 -4 4 -10 4 -5 0 -10 -5 -10 -11z"/><path d="M1079 1418 c0 -2 -2 -11 -4 -21 -3 -15 -1 -16 11 -6 7 6 11 15 8 20 -5 9 -13 12 -15 7z"/><path d="M1907 1413 c-11 -10 -8 -20 6 -20 8 0 14 6 14 14 0 14 -10 17 -20 6z"/><path d="M556 1367 c3 -10 9 -15 12 -12 3 3 0 11 -7 18 -10 9 -11 8 -5 -6z"/><path d="M2415 1349 c-4 -6 -5 -12 -2 -15 2 -3 7 2 10 11 7 17 1 20 -8 4z"/><path d="M2166 1342 c-3 -5 1 -9 9 -9 8 0 12 4 9 9 -3 4 -7 8 -9 8 -2 0 -6 -4 -9 -8z"/><path d="M813 1289 c-2 -23 3 -25 10 -4 4 8 3 16 -1 19 -4 3 -9 -4 -9 -15z"/><path d="M1015 1300 c3 -5 8 -10 11 -10 2 0 4 5 4 10 0 6 -5 10 -11 10 -5 0 -7 -4 -4 -10z"/><path d="M2190 1300 c0 -5 5 -10 11 -10 5 0 7 5 4 10 -3 6 -8 10 -11 10 -2 0 -4 -4 -4 -10z"/><path d="M1075 1280 c2 -27 10 -33 12 -10 1 11 -2 22 -6 24 -4 3 -7 -4 -6 -14z"/><path d="M1113 1285 c0 -7 6 -11 14 -8 7 3 13 6 13 8 0 2 -6 5 -13 8 -8 3 -14 -1 -14 -8z"/><path d="M576 1273 c-6 -14 -5 -15 5 -6 7 7 10 15 7 18 -3 3 -9 -2 -12 -12z"/><path d="M1016 1262 c-2 -4 -1 -14 4 -22 7 -11 9 -9 7 8 -1 24 -3 26 -11 14z"/><path d="M1130 1259 c0 -5 5 -7 10 -4 6 3 10 8 10 11 0 2 -4 4 -10 4 -5 0 -10 -5 -10 -11z"/><path d="M1910 1260 c0 -5 9 -8 20 -7 21 1 18 10 -5 13 -8 1 -15 -2 -15 -6z"/><path d="M2395 1260 c-3 -5 -1 -10 4 -10 6 0 11 5 11 10 0 6 -2 10 -4 10 -3 0 -8 -4 -11 -10z"/><path d="M1639 1243 c9 -18 7 -24 -9 -36 -19 -13 -20 -15 -3 -21 9 -4 14 -4 10 0 -4 4 0 15 8 24 13 15 13 19 -1 36 -15 18 -15 18 -5 -3z"/><path d="M1861 1221 c-10 -7 -7 -9 12 -8 14 1 23 5 20 10 -6 9 -15 9 -32 -2z"/><path d="M1914 1222 c4 -3 14 -7 22 -8 9 -1 13 0 10 4 -4 3 -14 7 -22 8 -9 1 -13 0 -10 -4z"/><path d="M814 1196 c1 -8 5 -18 8 -22 4 -3 5 1 4 10 -1 8 -5 18 -8 22 -4 3 -5 -1 -4 -10z"/><path d="M1470 1201 c0 -6 4 -13 10 -16 6 -3 7 1 4 9 -7 18 -14 21 -14 7z"/><path d="M1153 1175 c0 -8 4 -12 9 -9 4 3 8 9 8 15 0 5 -4 9 -8 9 -5 0 -9 -7 -9 -15z"/><path d="M1146 1142 c-3 -5 1 -9 9 -9 8 0 15 4 15 9 0 4 -4 8 -9 8 -6 0 -12 -4 -15 -8z"/><path d="M1810 1136 c0 -2 8 -10 18 -17 15 -13 16 -12 3 4 -13 16 -21 21 -21 13z"/><path d="M1070 1120 c0 -5 5 -10 11 -10 5 0 7 5 4 10 -3 6 -8 10 -11 10 -2 0 -4 -4 -4 -10z"/><path d="M1382 1118 c6 -18 28 -21 28 -4 0 9 -7 16 -16 16 -9 0 -14 -5 -12 -12z"/><path d="M1166 1078 c3 -4 9 -8 15 -8 5 0 9 4 9 8 0 5 -7 9 -15 9 -8 0 -12 -4 -9 -9z"/><path d="M1536 1061 c-3 -5 2 -15 12 -22 15 -12 16 -12 5 2 -7 9 -10 19 -6 22 3 4 4 7 0 7 -3 0 -8 -4 -11 -9z"/><path d="M1233 1030 c1 -21 10 -18 13 5 1 8 -2 15 -6 15 -5 0 -8 -9 -7 -20z"/><path d="M1495 1040 c3 -5 8 -10 11 -10 2 0 4 5 4 10 0 6 -5 10 -11 10 -5 0 -7 -4 -4 -10z"/><path d="M1873 1035 c0 -8 4 -12 9 -9 5 3 6 10 3 15 -9 13 -12 11 -12 -6z"/><path d="M1135 1019 c-3 -4 2 -6 10 -5 21 3 28 13 10 13 -9 0 -18 -4 -20 -8z"/><path d="M1230 975 c5 -7 7 -15 3 -18 -3 -4 -1 -7 5 -7 6 0 10 8 9 18 0 10 -7 19 -14 19 -9 0 -10 -4 -3 -12z"/><path d="M1756 967 c3 -10 9 -15 12 -12 3 3 0 11 -7 18 -10 9 -11 8 -5 -6z"/><path d="M1795 969 c-4 -6 -5 -12 -2 -15 2 -3 7 2 10 11 7 17 1 20 -8 4z"/><path d="M1235 931 c-3 -5 -2 -12 3 -15 5 -3 9 1 9 9 0 17 -3 19 -12 6z"/><path d="M1236 887 c3 -10 9 -15 12 -12 3 3 0 11 -7 18 -10 9 -11 8 -5 -6z"/><path d="M766 882 c-3 -5 1 -9 9 -9 8 0 12 4 9 9 -3 4 -7 8 -9 8 -2 0 -6 -4 -9 -8z"/><path d="M2415 880 c-3 -5 -1 -10 4 -10 6 0 11 5 11 10 0 6 -2 10 -4 10 -3 0 -8 -4 -11 -10z"/><path d="M1696 853 c-6 -14 -5 -15 5 -6 7 7 10 15 7 18 -3 3 -9 -2 -12 -12z"/><path d="M1308 853 c7 -3 16 -2 19 1 4 3 -2 6 -13 5 -11 0 -14 -3 -6 -6z"/><path d="M815 839 c-3 -4 2 -6 10 -5 21 3 28 13 10 13 -9 0 -18 -4 -20 -8z"/><path d="M1255 820 c3 -5 8 -10 11 -10 2 0 4 5 4 10 0 6 -5 10 -11 10 -5 0 -7 -4 -4 -10z"/><path d="M1313 807 c0 -8 6 -14 13 -14 7 0 10 6 7 14 -3 7 -8 13 -12 13 -4 0 -8 -6 -8 -13z"/><path d="M1755 809 c-4 -6 -5 -12 -2 -15 2 -3 7 2 10 11 7 17 1 20 -8 4z"/><path d="M1255 780 c3 -5 8 -10 11 -10 2 0 4 5 4 10 0 6 -5 10 -11 10 -5 0 -7 -4 -4 -10z"/><path d="M1635 780 c3 -5 8 -10 11 -10 2 0 4 5 4 10 0 6 -5 10 -11 10 -5 0 -7 -4 -4 -10z"/><path d="M1655 761 c-3 -5 -2 -12 3 -15 5 -3 9 1 9 9 0 17 -3 19 -12 6z"/><path d="M1353 705 c0 -8 4 -15 9 -15 4 0 8 4 8 9 0 6 -4 12 -8 15 -5 3 -9 -1 -9 -9z"/><path d="M1316 702 c-3 -5 1 -9 9 -9 8 0 12 4 9 9 -3 4 -7 8 -9 8 -2 0 -6 -4 -9 -8z"/><path d="M684 693 c12 -22 -4 -36 -22 -20 -10 7 -28 14 -42 14 -14 1 -19 -1 -12 -4 6 -3 9 -9 6 -15 -4 -6 1 -8 13 -4 11 3 27 -1 39 -10 10 -8 13 -12 5 -8 -10 5 -12 3 -7 -7 4 -8 1 -6 -7 4 -8 9 -17 17 -21 17 -3 0 -6 -8 -6 -17 0 -14 -2 -15 -9 -4 -6 9 -11 10 -15 2 -7 -10 6 -16 28 -12 4 1 14 -4 22 -10 10 -8 14 -8 14 0 0 6 3 10 8 10 22 -4 42 2 37 11 -4 6 -10 8 -14 6 -4 -3 -8 1 -8 9 0 23 11 18 29 -12 10 -16 18 -22 18 -15 0 6 5 12 11 12 5 0 7 -6 3 -12 -4 -7 -3 -9 1 -5 13 11 15 37 4 37 -6 0 -8 4 -4 9 3 5 1 12 -4 16 -6 3 -8 -3 -6 -15 5 -27 -3 -25 -38 8 -17 15 -27 21 -23 15z"/><path d="M2304 692 c9 -15 -12 -44 -25 -36 -5 3 -9 0 -9 -6 0 -6 -5 -8 -11 -4 -8 4 -7 9 2 15 7 4 18 5 24 1 5 -3 4 2 -4 11 -15 19 -35 18 -37 -1 -1 -7 -2 -13 -4 -14 -12 -16 -4 -33 16 -33 13 0 24 4 24 8 0 4 9 3 20 -3 11 -6 20 -8 20 -4 0 3 6 1 14 -5 10 -9 16 -9 21 -1 4 7 11 8 19 1 8 -7 12 -1 13 22 l1 32 -18 -23 c-13 -15 -20 -18 -23 -10 -4 10 -6 9 -6 -1 -1 -11 -4 -11 -18 0 -14 12 -16 12 -8 0 5 -10 4 -12 -3 -7 -9 5 -9 13 -1 28 8 15 8 23 -2 32 -9 8 -10 8 -5 -2z"/><path d="M2334 683 c4 -7 2 -13 -3 -13 -6 0 -11 -4 -11 -10 0 -19 45 -3 47 16 2 10 0 13 -3 6 -5 -10 -9 -10 -22 0 -12 10 -14 10 -8 1z"/><path d="M1610 656 c0 -2 8 -10 18 -17 15 -13 16 -12 3 4 -13 16 -21 21 -21 13z"/><path d="M1316 638 c3 -5 10 -6 15 -3 13 9 11 12 -6 12 -8 0 -12 -4 -9 -9z"/><path d="M1646 622 c-3 -5 1 -9 9 -9 8 0 12 4 9 9 -3 4 -7 8 -9 8 -2 0 -6 -4 -9 -8z"/><path d="M1359 593 c-13 -16 -12 -17 4 -4 16 13 21 21 13 21 -2 0 -10 -8 -17 -17z"/><path d="M1390 601 c0 -6 4 -12 8 -15 5 -3 9 1 9 9 0 8 -4 15 -9 15 -4 0 -8 -4 -8 -9z"/><path d="M1470 600 c0 -5 5 -10 10 -10 6 0 10 5 10 10 0 6 -4 10 -10 10 -5 0 -10 -4 -10 -10z"/><path d="M1493 567 c0 -16 34 -20 43 -5 4 7 2 8 -5 4 -6 -4 -18 -3 -25 3 -9 8 -13 7 -13 -2z"/><path d="M1393 555 c0 -8 4 -12 9 -9 5 3 6 10 3 15 -9 13 -12 11 -12 -6z"/><path d="M1550 560 c0 -5 5 -10 11 -10 5 0 7 5 4 10 -3 6 -8 10 -11 10 -2 0 -4 -4 -4 -10z"/><path d="M1513 525 c0 -8 4 -12 9 -9 5 3 6 10 3 15 -9 13 -12 11 -12 -6z"/><path d="M1453 495 c0 -8 4 -12 9 -9 5 3 6 10 3 15 -9 13 -12 11 -12 -6z"/><path d="M1519 473 c-13 -16 -12 -17 4 -4 16 13 21 21 13 21 -2 0 -10 -8 -17 -17z"/></g></svg>